<?xml version="1.0" encoding="UTF-8" standalone="no"?>
<!-- Created with Inkscape (http://www.inkscape.org/) -->

<svg
   xmlns:dc="http://purl.org/dc/elements/1.1/"
   xmlns:cc="http://creativecommons.org/ns#"
   xmlns:rdf="http://www.w3.org/1999/02/22-rdf-syntax-ns#"
   xmlns:svg="http://www.w3.org/2000/svg"
   xmlns="http://www.w3.org/2000/svg"
   xmlns:sodipodi="http://sodipodi.sourceforge.net/DTD/sodipodi-0.dtd"
   xmlns:inkscape="http://www.inkscape.org/namespaces/inkscape"
   width="99.938309mm"
   height="37.027374mm"
   viewBox="0 0 99.938308 37.027373"
   version="1.1"
   id="svg8"
   inkscape:version="0.92.2 (5c3e80d, 2017-08-06)"
   sodipodi:docname="liyad-logo.svg">
  <defs
     id="defs2">
    <filter
       style="color-interpolation-filters:sRGB"
       inkscape:label="Wax Bump"
       id="filter5073">
      <feGaussianBlur
         in="SourceGraphic"
         stdDeviation="0.53"
         result="blur1"
         id="feGaussianBlur5041" />
      <feFlood
         flood-opacity="1"
         flood-color="rgb(255,255,255)"
         result="flood1"
         id="feFlood5043" />
      <feColorMatrix
         in="flood1"
         values="1 0 0 0 0 0 1 0 0 0 0 0 1 0 0 0 0 0 0 0 "
         result="colormatrix1"
         id="feColorMatrix5045" />
      <feColorMatrix
         in="blur1"
         values="0 0 0 0 0 0 0 0 0 0 0 0 0 0 0 -0.21 -0.72 -0.07 -2.29167 0 "
         result="colormatrix2"
         id="feColorMatrix5047" />
      <feFlood
         flood-color="rgb(225,0,38)"
         flood-opacity="1"
         result="flood2"
         id="feFlood5049" />
      <feComposite
         in="flood2"
         in2="colormatrix2"
         operator="out"
         result="composite1"
         id="feComposite5051" />
      <feGaussianBlur
         in="composite1"
         stdDeviation="0.71"
         result="blur2"
         id="feGaussianBlur5053" />
      <feSpecularLighting
         in="blur2"
         lighting-color="#ffffff"
         specularConstant="1.39999998"
         surfaceScale="5"
         specularExponent="35"
         result="specular"
         id="feSpecularLighting5057">
        <feDistantLight
           elevation="60"
           azimuth="225"
           id="feDistantLight5055" />
      </feSpecularLighting>
      <feBlend
         in="specular"
         in2="blur2"
         specularConstant="1"
         mode="screen"
         result="blend1"
         id="feBlend5059" />
      <feComposite
         in="blend1"
         in2="blur2"
         operator="atop"
         result="composite2"
         id="feComposite5061" />
      <feMerge
         result="merge"
         id="feMerge5067">
        <feMergeNode
           in="colormatrix1"
           id="feMergeNode5063" />
        <feMergeNode
           in="composite2"
           id="feMergeNode5065" />
      </feMerge>
      <feBlend
         in2="composite2"
         mode="screen"
         result="blend2"
         id="feBlend5069" />
      <feComposite
         in="blend2"
         in2="SourceGraphic"
         operator="in"
         result="fbSourceGraphic"
         id="feComposite5071" />
      <feColorMatrix
         result="fbSourceGraphicAlpha"
         in="fbSourceGraphic"
         values="0 0 0 -1 0 0 0 0 -1 0 0 0 0 -1 0 0 0 0 1 0"
         id="feColorMatrix5075" />
      <feGaussianBlur
         id="feGaussianBlur5077"
         in="fbSourceGraphic"
         stdDeviation="0.53"
         result="blur1" />
      <feFlood
         id="feFlood5079"
         flood-opacity="1"
         flood-color="rgb(255,255,255)"
         result="flood1" />
      <feColorMatrix
         id="feColorMatrix5081"
         in="flood1"
         values="1 0 0 0 0 0 1 0 0 0 0 0 1 0 0 0 0 0 0 0 "
         result="colormatrix1" />
      <feColorMatrix
         id="feColorMatrix5083"
         in="blur1"
         values="0 0 0 0 0 0 0 0 0 0 0 0 0 0 0 -0.21 -0.72 -0.07 -2.29 0 "
         result="colormatrix2" />
      <feFlood
         id="feFlood5085"
         flood-color="rgb(225,0,38)"
         flood-opacity="1"
         result="flood2" />
      <feComposite
         in2="colormatrix2"
         id="feComposite5087"
         in="flood2"
         operator="out"
         result="composite1" />
      <feGaussianBlur
         id="feGaussianBlur5089"
         in="composite1"
         stdDeviation="0.71"
         result="blur2" />
      <feSpecularLighting
         id="feSpecularLighting5091"
         in="blur2"
         lighting-color="#ffffff"
         specularConstant="1.39999998"
         surfaceScale="5"
         specularExponent="35"
         result="specular">
        <feDistantLight
           id="feDistantLight5093"
           elevation="60"
           azimuth="225" />
      </feSpecularLighting>
      <feBlend
         in2="blur2"
         id="feBlend5095"
         in="specular"
         specularConstant="1"
         mode="screen"
         result="blend1" />
      <feComposite
         in2="blur2"
         id="feComposite5097"
         in="blend1"
         operator="atop"
         result="composite2" />
      <feMerge
         id="feMerge5099"
         result="merge">
        <feMergeNode
           id="feMergeNode5101"
           in="colormatrix1" />
        <feMergeNode
           id="feMergeNode5103"
           in="composite2" />
      </feMerge>
      <feBlend
         in2="composite2"
         id="feBlend5105"
         mode="screen"
         result="blend2" />
      <feComposite
         in2="fbSourceGraphic"
         id="feComposite5107"
         in="blend2"
         operator="in"
         result="composite3" />
    </filter>
    <filter
       style="color-interpolation-filters:sRGB"
       inkscape:label="Silhouette"
       id="filter5073-5">
      <feGaussianBlur
         in="SourceGraphic"
         stdDeviation="0.53"
         result="blur1"
         id="feGaussianBlur5041-3" />
      <feFlood
         flood-opacity="1"
         flood-color="rgb(255,255,255)"
         result="flood1"
         id="feFlood5043-0" />
      <feColorMatrix
         in="flood1"
         values="1 0 0 0 0 0 1 0 0 0 0 0 1 0 0 0 0 0 0 0 "
         result="colormatrix1"
         id="feColorMatrix5045-6" />
      <feColorMatrix
         in="blur1"
         values="0 0 0 0 0 0 0 0 0 0 0 0 0 0 0 -0.21 -0.72 -0.07 -2.29167 0 "
         result="colormatrix2"
         id="feColorMatrix5047-4" />
      <feFlood
         flood-color="rgb(225,0,38)"
         flood-opacity="1"
         result="flood2"
         id="feFlood5049-8" />
      <feComposite
         in="flood2"
         in2="colormatrix2"
         operator="out"
         result="composite1"
         id="feComposite5051-0" />
      <feGaussianBlur
         in="composite1"
         stdDeviation="0.71"
         result="blur2"
         id="feGaussianBlur5053-2" />
      <feSpecularLighting
         in="blur2"
         lighting-color="#ffffff"
         specularConstant="1.39999998"
         surfaceScale="5"
         specularExponent="35"
         result="specular"
         id="feSpecularLighting5057-2">
        <feDistantLight
           elevation="60"
           azimuth="225"
           id="feDistantLight5055-0" />
      </feSpecularLighting>
      <feBlend
         in="specular"
         in2="blur2"
         specularConstant="1"
         mode="screen"
         result="blend1"
         id="feBlend5059-4" />
      <feComposite
         in="blend1"
         in2="blur2"
         operator="atop"
         result="composite2"
         id="feComposite5061-8" />
      <feMerge
         result="merge"
         id="feMerge5067-0">
        <feMergeNode
           in="colormatrix1"
           id="feMergeNode5063-4" />
        <feMergeNode
           in="composite2"
           id="feMergeNode5065-9" />
      </feMerge>
      <feBlend
         in2="composite2"
         mode="screen"
         result="blend2"
         id="feBlend5069-9" />
      <feComposite
         in="blend2"
         in2="SourceGraphic"
         operator="in"
         result="fbSourceGraphic"
         id="feComposite5071-2" />
      <feColorMatrix
         result="fbSourceGraphicAlpha"
         in="fbSourceGraphic"
         values="0 0 0 -1 0 0 0 0 -1 0 0 0 0 -1 0 0 0 0 1 0"
         id="feColorMatrix5075-3" />
      <feGaussianBlur
         id="feGaussianBlur5077-0"
         in="fbSourceGraphic"
         stdDeviation="0.53"
         result="blur1" />
      <feFlood
         id="feFlood5079-1"
         flood-opacity="1"
         flood-color="rgb(255,255,255)"
         result="flood1" />
      <feColorMatrix
         id="feColorMatrix5081-1"
         in="flood1"
         values="1 0 0 0 0 0 1 0 0 0 0 0 1 0 0 0 0 0 0 0 "
         result="colormatrix1" />
      <feColorMatrix
         id="feColorMatrix5083-8"
         in="blur1"
         values="0 0 0 0 0 0 0 0 0 0 0 0 0 0 0 -0.21 -0.72 -0.07 -2.29 0 "
         result="colormatrix2" />
      <feFlood
         id="feFlood5085-9"
         flood-color="rgb(225,0,38)"
         flood-opacity="1"
         result="flood2" />
      <feComposite
         in2="colormatrix2"
         id="feComposite5087-3"
         in="flood2"
         operator="out"
         result="composite1" />
      <feGaussianBlur
         id="feGaussianBlur5089-0"
         in="composite1"
         stdDeviation="0.71"
         result="blur2" />
      <feSpecularLighting
         id="feSpecularLighting5091-4"
         in="blur2"
         lighting-color="#ffffff"
         specularConstant="1.39999998"
         surfaceScale="5"
         specularExponent="35"
         result="specular">
        <feDistantLight
           id="feDistantLight5093-5"
           elevation="60"
           azimuth="225" />
      </feSpecularLighting>
      <feBlend
         in2="blur2"
         id="feBlend5095-3"
         in="specular"
         specularConstant="1"
         mode="screen"
         result="blend1" />
      <feComposite
         in2="blur2"
         id="feComposite5097-2"
         in="blend1"
         operator="atop"
         result="composite2" />
      <feMerge
         id="feMerge5099-0"
         result="merge">
        <feMergeNode
           id="feMergeNode5101-7"
           in="colormatrix1" />
        <feMergeNode
           id="feMergeNode5103-9"
           in="composite2" />
      </feMerge>
      <feBlend
         in2="composite2"
         id="feBlend5105-4"
         mode="screen"
         result="blend2" />
      <feComposite
         in2="fbSourceGraphic"
         id="feComposite5107-1"
         in="blend2"
         operator="in"
         result="fbSourceGraphic" />
      <feColorMatrix
         result="fbSourceGraphicAlpha"
         in="fbSourceGraphic"
         values="0 0 0 -1 0 0 0 0 -1 0 0 0 0 -1 0 0 0 0 1 0"
         id="feColorMatrix1032" />
      <feFlood
         id="feFlood1034"
         flood-opacity="1"
         flood-color="rgb(0,0,0)"
         result="flood"
         in="fbSourceGraphic" />
      <feComposite
         in2="fbSourceGraphic"
         id="feComposite1036"
         in="flood"
         operator="in"
         result="composite" />
      <feGaussianBlur
         id="feGaussianBlur1038"
         stdDeviation="0.01"
         result="fbSourceGraphic" />
      <feColorMatrix
         result="fbSourceGraphicAlpha"
         in="fbSourceGraphic"
         values="0 0 0 -1 0 0 0 0 -1 0 0 0 0 -1 0 0 0 0 1 0"
         id="feColorMatrix1040" />
      <feFlood
         id="feFlood1042"
         flood-opacity="1"
         flood-color="rgb(0,0,0)"
         result="flood"
         in="fbSourceGraphic" />
      <feComposite
         in2="fbSourceGraphic"
         id="feComposite1044"
         in="flood"
         operator="in"
         result="composite" />
      <feGaussianBlur
         id="feGaussianBlur1046"
         stdDeviation="0.01"
         result="fbSourceGraphic" />
      <feColorMatrix
         result="fbSourceGraphicAlpha"
         in="fbSourceGraphic"
         values="0 0 0 -1 0 0 0 0 -1 0 0 0 0 -1 0 0 0 0 1 0"
         id="feColorMatrix1048" />
      <feFlood
         id="feFlood1050"
         flood-opacity="1"
         flood-color="rgb(0,0,0)"
         result="flood"
         in="fbSourceGraphic" />
      <feComposite
         in2="fbSourceGraphic"
         id="feComposite1052"
         in="flood"
         operator="in"
         result="composite" />
      <feGaussianBlur
         id="feGaussianBlur1054"
         stdDeviation="0.01"
         result="fbSourceGraphic" />
      <feColorMatrix
         result="fbSourceGraphicAlpha"
         in="fbSourceGraphic"
         values="0 0 0 -1 0 0 0 0 -1 0 0 0 0 -1 0 0 0 0 1 0"
         id="feColorMatrix1056" />
      <feFlood
         id="feFlood1058"
         flood-opacity="1"
         flood-color="rgb(0,0,0)"
         result="flood"
         in="fbSourceGraphic" />
      <feComposite
         in2="fbSourceGraphic"
         id="feComposite1060"
         in="flood"
         operator="in"
         result="composite" />
      <feGaussianBlur
         id="feGaussianBlur1062"
         stdDeviation="0.01"
         result="fbSourceGraphic" />
      <feColorMatrix
         result="fbSourceGraphicAlpha"
         in="fbSourceGraphic"
         values="0 0 0 -1 0 0 0 0 -1 0 0 0 0 -1 0 0 0 0 1 0"
         id="feColorMatrix1064" />
      <feFlood
         id="feFlood1066"
         flood-opacity="1"
         flood-color="rgb(0,0,0)"
         result="flood"
         in="fbSourceGraphic" />
      <feComposite
         in2="fbSourceGraphic"
         id="feComposite1068"
         in="flood"
         operator="in"
         result="composite" />
      <feGaussianBlur
         id="feGaussianBlur1070"
         stdDeviation="0.01"
         result="fbSourceGraphic" />
      <feColorMatrix
         result="fbSourceGraphicAlpha"
         in="fbSourceGraphic"
         values="0 0 0 -1 0 0 0 0 -1 0 0 0 0 -1 0 0 0 0 1 0"
         id="feColorMatrix1072" />
      <feFlood
         id="feFlood1074"
         flood-opacity="1"
         flood-color="rgb(0,0,0)"
         result="flood"
         in="fbSourceGraphic" />
      <feComposite
         in2="fbSourceGraphic"
         id="feComposite1076"
         in="flood"
         operator="in"
         result="composite" />
      <feGaussianBlur
         id="feGaussianBlur1078"
         stdDeviation="0.01"
         result="fbSourceGraphic" />
      <feColorMatrix
         result="fbSourceGraphicAlpha"
         in="fbSourceGraphic"
         values="0 0 0 -1 0 0 0 0 -1 0 0 0 0 -1 0 0 0 0 1 0"
         id="feColorMatrix1080" />
      <feFlood
         id="feFlood1082"
         flood-opacity="1"
         flood-color="rgb(0,0,0)"
         result="flood"
         in="fbSourceGraphic" />
      <feComposite
         in2="fbSourceGraphic"
         id="feComposite1084"
         in="flood"
         operator="in"
         result="composite" />
      <feGaussianBlur
         id="feGaussianBlur1086"
         stdDeviation="0.01"
         result="fbSourceGraphic" />
      <feColorMatrix
         result="fbSourceGraphicAlpha"
         in="fbSourceGraphic"
         values="0 0 0 -1 0 0 0 0 -1 0 0 0 0 -1 0 0 0 0 1 0"
         id="feColorMatrix1088" />
      <feFlood
         id="feFlood1090"
         flood-opacity="1"
         flood-color="rgb(0,0,0)"
         result="flood"
         in="fbSourceGraphic" />
      <feComposite
         in2="fbSourceGraphic"
         id="feComposite1092"
         in="flood"
         operator="in"
         result="composite" />
      <feGaussianBlur
         id="feGaussianBlur1094"
         stdDeviation="0.01"
         result="fbSourceGraphic" />
      <feColorMatrix
         result="fbSourceGraphicAlpha"
         in="fbSourceGraphic"
         values="0 0 0 -1 0 0 0 0 -1 0 0 0 0 -1 0 0 0 0 1 0"
         id="feColorMatrix1096" />
      <feFlood
         id="feFlood1098"
         flood-opacity="1"
         flood-color="rgb(0,0,0)"
         result="flood"
         in="fbSourceGraphic" />
      <feComposite
         in2="fbSourceGraphic"
         id="feComposite1100"
         in="flood"
         operator="in"
         result="composite" />
      <feGaussianBlur
         id="feGaussianBlur1102"
         stdDeviation="0.01"
         result="fbSourceGraphic" />
      <feColorMatrix
         result="fbSourceGraphicAlpha"
         in="fbSourceGraphic"
         values="0 0 0 -1 0 0 0 0 -1 0 0 0 0 -1 0 0 0 0 1 0"
         id="feColorMatrix1104" />
      <feFlood
         id="feFlood1106"
         flood-opacity="1"
         flood-color="rgb(0,0,0)"
         result="flood"
         in="fbSourceGraphic" />
      <feComposite
         in2="fbSourceGraphic"
         id="feComposite1108"
         in="flood"
         operator="in"
         result="composite" />
      <feGaussianBlur
         id="feGaussianBlur1110"
         stdDeviation="0.01" />
    </filter>
  </defs>
  <sodipodi:namedview
     id="base"
     pagecolor="#ffffff"
     bordercolor="#666666"
     borderopacity="1.0"
     inkscape:pageopacity="0.0"
     inkscape:pageshadow="2"
     inkscape:zoom="1.4142136"
     inkscape:cx="298.75513"
     inkscape:cy="-136.37262"
     inkscape:document-units="mm"
     inkscape:current-layer="layer1"
     showgrid="false"
     inkscape:window-width="1920"
     inkscape:window-height="1027"
     inkscape:window-x="-8"
     inkscape:window-y="-8"
     inkscape:window-maximized="1"
     fit-margin-top="1"
     fit-margin-left="1"
     fit-margin-right="1"
     fit-margin-bottom="1"
     inkscape:snap-global="false" />
  <metadata
     id="metadata5">
    <rdf:RDF>
      <cc:Work
         rdf:about="">
        <dc:format>image/svg+xml</dc:format>
        <dc:type
           rdf:resource="http://purl.org/dc/dcmitype/StillImage" />
        <dc:title></dc:title>
      </cc:Work>
    </rdf:RDF>
  </metadata>
  <g
     inkscape:label="Layer 1"
     inkscape:groupmode="layer"
     id="layer1"
     transform="translate(-0.66122957,-0.17712868)">
    <g
       id="g1947"
       transform="translate(-75.209645,-118.05295)">
      <path
         sodipodi:nodetypes="sssss"
         inkscape:connector-curvature="0"
         id="path867"
         d="m 172.53981,141.77296 c 11.28191,4.92619 -21.79282,7.93107 -48.67561,7.93107 -26.882789,0 -46.819582,-3.92843 -46.991808,-8.30525 -0.187084,-4.75439 16.923523,9.71866 52.175038,3.84059 18.02399,-3.00544 37.88428,-5.91516 43.49238,-3.46641 z"
         style="opacity:1;fill:#fd5080;fill-opacity:1;fill-rule:nonzero;stroke:none;stroke-width:0.27913618;stroke-miterlimit:4;stroke-dasharray:none;stroke-opacity:1" />
      <g
         style="fill:#fd3255;fill-opacity:1;stroke:none"
         id="g1117">
        <path
           style="font-style:normal;font-variant:normal;font-weight:normal;font-stretch:normal;font-size:36.00118256px;line-height:22.50073814px;font-family:'Cooper Black';-inkscape-font-specification:'Cooper Black, Normal';font-variant-ligatures:normal;font-variant-caps:normal;font-variant-numeric:normal;font-feature-settings:normal;text-align:start;letter-spacing:0px;word-spacing:0px;writing-mode:lr-tb;text-anchor:start;fill:#fd3255;fill-opacity:1;stroke:none;stroke-width:0.78113919px;stroke-linecap:butt;stroke-linejoin:miter;stroke-opacity:1"
           d="m 92.510987,126.01647 c -1.013152,3.05074 -2.398593,6.00003 -3.072952,9.1455 1.621964,2.56174 6.309555,0.38419 7.511345,-2.04785 2.829698,-3.18107 3.47395,2.51866 1.056038,3.80133 -1.293498,2.00094 -3.4083,3.18953 -5.747402,2.56607 -4.507039,-0.19048 -9.026273,0.34709 -13.537319,0.29514 -2.92525,-1.95729 3.623394,-2.46141 3.204495,-5.13246 1.29231,-3.59278 2.68983,-7.19974 3.596478,-10.89771 -1.594179,-0.65159 -3.046988,-2.38983 -0.425616,-3.23858 3.497187,-1.16465 7.408645,-1.34981 11.01289,-0.65038 2.560388,2.43227 -4.273065,2.78468 -3.597957,6.15894 z"
           id="path4508-2"
           inkscape:connector-curvature="0" />
        <path
           style="font-style:normal;font-variant:normal;font-weight:normal;font-stretch:normal;font-size:36.00118256px;line-height:22.50073814px;font-family:'Cooper Black';-inkscape-font-specification:'Cooper Black, Normal';font-variant-ligatures:normal;font-variant-caps:normal;font-variant-numeric:normal;font-feature-settings:normal;text-align:start;letter-spacing:0px;word-spacing:0px;writing-mode:lr-tb;text-anchor:start;fill:#fd3255;fill-opacity:1;stroke:none;stroke-width:0.78113919px;stroke-linecap:butt;stroke-linejoin:miter;stroke-opacity:1"
           d="m 110.83544,125.7934 c -0.85882,3.41269 -2.10675,6.75414 -2.67988,10.2196 3.32159,3.53937 -3.45439,4.41601 -5.8819,3.94474 -2.20488,0.60053 -5.638821,-1.60165 -2.333398,-3.12058 1.773118,-2.14023 3.842778,-6.56965 1.367318,-8.64807 1.47274,-2.96878 5.98346,-2.71782 8.93415,-3.32474 0.54072,-0.0934 0.80708,0.49726 0.59371,0.92905 z m -1.2348,-6.56332 c 4.96968,-0.003 0.79548,5.11149 -2.21207,4.54062 -3.08813,1.56794 -6.11897,-2.29743 -2.13461,-3.59915 1.38323,-0.54096 2.85327,-0.93039 4.34668,-0.94147 z"
           id="path4510-9"
           inkscape:connector-curvature="0" />
        <path
           style="font-style:normal;font-variant:normal;font-weight:normal;font-stretch:normal;font-size:36.00118256px;line-height:22.50073814px;font-family:'Cooper Black';-inkscape-font-specification:'Cooper Black, Normal';font-variant-ligatures:normal;font-variant-caps:normal;font-variant-numeric:normal;font-feature-settings:normal;text-align:start;letter-spacing:0px;word-spacing:0px;writing-mode:lr-tb;text-anchor:start;fill:#fd3255;fill-opacity:1;stroke:none;stroke-width:0.78113919px;stroke-linecap:butt;stroke-linejoin:miter;stroke-opacity:1"
           d="m 126.97956,132.24688 c -3.0954,4.40628 -5.32998,10.07247 -10.72411,12.10306 -2.99061,1.72399 -9.11681,-0.85568 -5.88661,-4.6233 2.22983,-2.69563 4.8142,-0.20916 5.09064,1.97365 2.6874,-0.77029 1.11806,-3.92635 0.79942,-5.87781 -0.60699,-2.35366 -0.94873,-4.79158 -1.78152,-7.07448 -4.18751,-2.18728 1.77611,-4.48435 4.19805,-3.88858 2.46484,-0.64599 7.20443,0.71966 3.96009,3.57819 -0.57018,2.43236 1.85628,4.41065 2.94508,1.34661 0.57368,-1.94432 -0.80808,-4.78374 2.65249,-4.658 2.15882,-0.99198 6.87736,1.11598 3.02717,2.84324 -2.13676,0.46429 -3.0926,2.68811 -4.2807,4.27742 z"
           id="path4512-0"
           inkscape:connector-curvature="0" />
        <path
           style="font-style:normal;font-variant:normal;font-weight:normal;font-stretch:normal;font-size:36.00118256px;line-height:22.50073814px;font-family:'Cooper Black';-inkscape-font-specification:'Cooper Black, Normal';font-variant-ligatures:normal;font-variant-caps:normal;font-variant-numeric:normal;font-feature-settings:normal;text-align:start;letter-spacing:0px;word-spacing:0px;writing-mode:lr-tb;text-anchor:start;fill:#fd3255;fill-opacity:1;stroke:none;stroke-width:0.80587322px;stroke-linecap:butt;stroke-linejoin:miter;stroke-opacity:1"
           d="m 142.39926,124.74447 c 3.39559,-0.59654 6.55988,2.77941 4.22679,5.88594 -0.46467,1.73663 -2.77598,4.44972 -0.94326,5.56165 0.29705,2.80561 -6.07459,5.80588 -8.23798,3.06387 -2.46092,-0.32491 -6.46268,2.77401 -9.014,-0.0591 -1.68465,-2.83791 1.37418,-5.7382 3.87369,-6.71175 2.48739,-1.88929 7.44379,0.51982 7.95128,-3.47638 -0.18557,-4.39684 -4.60557,1.99498 -6.91914,1.54336 -3.51893,-2.1425 2.97562,-5.01731 5.35164,-5.34462 1.21384,-0.29454 2.46089,-0.46332 3.71098,-0.46301 z m -4.7348,8.82577 c -3.38761,-0.29239 -3.06796,5.91102 -0.15119,2.33316 0.24444,-0.58367 1.4517,-2.2653 0.15119,-2.33316 z"
           id="path4514-0"
           inkscape:connector-curvature="0" />
        <path
           style="font-style:normal;font-variant:normal;font-weight:normal;font-stretch:normal;font-size:36.00118256px;line-height:22.50073814px;font-family:'Cooper Black';-inkscape-font-specification:'Cooper Black, Normal';font-variant-ligatures:normal;font-variant-caps:normal;font-variant-numeric:normal;font-feature-settings:normal;text-align:start;letter-spacing:0px;word-spacing:0px;writing-mode:lr-tb;text-anchor:start;fill:#fd3255;fill-opacity:1;stroke:none;stroke-width:0.77617633px;stroke-linecap:butt;stroke-linejoin:miter;stroke-opacity:1"
           d="m 168.84185,120.94247 c -1.4859,5.0011 -3.17655,9.95039 -4.52122,14.98728 3.04687,3.46535 -3.82513,4.34941 -6.24809,4.31157 -2.0173,0.59022 -0.55617,-3.1494 -2.9311,-0.82805 -2.96286,1.99527 -7.78501,0.75636 -8.33251,-3.11365 -0.99045,-5.37828 4.06924,-10.27869 9.11765,-11.03148 1.93402,-0.31146 6.07825,2.16906 4.70898,-1.53683 -3.47841,-2.17304 3.29613,-3.52906 5.15508,-3.73942 0.90598,-0.0824 3.59531,-0.95065 3.05121,0.95058 z m -10.72595,7.44185 c -3.01553,0.82028 -4.76762,5.12402 -3.78505,7.95784 3.50392,1.42831 4.55875,-4.33684 4.91325,-6.86394 0.0342,-0.59317 -0.50831,-1.16899 -1.1282,-1.0939 z"
           id="path4516-9"
           inkscape:connector-curvature="0" />
      </g>
    </g>
    <g
       aria-label="Lisp yet another DSL"
       style="font-style:normal;font-weight:normal;font-size:10.58333302px;line-height:6.61458302px;font-family:sans-serif;letter-spacing:0px;word-spacing:0px;fill:#fd3255;fill-opacity:1;stroke:none;stroke-width:0.26458332px;stroke-linecap:butt;stroke-linejoin:miter;stroke-opacity:1"
       id="text1951"
       transform="matrix(0.33686698,0,0.03005121,0.28865204,25.06014,19.651601)">
      <path
         d="m 18.396273,47.6872 h 0.764811 l -0.914673,6.888468 h 3.286621 l -0.08785,0.713135 H 17.39375 Z"
         style="font-style:italic;font-variant:normal;font-weight:normal;font-stretch:normal;font-size:10.58333302px;font-family:'Century Gothic';-inkscape-font-specification:'Century Gothic, Italic';font-variant-ligatures:normal;font-variant-caps:normal;font-variant-numeric:normal;font-feature-settings:normal;text-align:start;writing-mode:lr-tb;text-anchor:start;fill:#fd3255;fill-opacity:1;stroke-width:0.26458332px"
         id="path1953"
         inkscape:connector-curvature="0" />
      <path
         d="m 23.439892,47.351303 q 0.237712,0 0.408244,0.170533 0.170532,0.170532 0.170532,0.408243 0,0.24288 -0.170532,0.413412 -0.170532,0.165364 -0.408244,0.165364 -0.242879,0 -0.413411,-0.165364 -0.165365,-0.170532 -0.165365,-0.413412 0,-0.237711 0.165365,-0.408243 0.170532,-0.170533 0.413411,-0.170533 z m -0.56844,2.315104 h 0.687296 l -0.749308,5.622396 h -0.713135 z"
         style="font-style:italic;font-variant:normal;font-weight:normal;font-stretch:normal;font-size:10.58333302px;font-family:'Century Gothic';-inkscape-font-specification:'Century Gothic, Italic';font-variant-ligatures:normal;font-variant-caps:normal;font-variant-numeric:normal;font-feature-settings:normal;text-align:start;writing-mode:lr-tb;text-anchor:start;fill:#fd3255;fill-opacity:1;stroke-width:0.26458332px"
         id="path1955"
         inkscape:connector-curvature="0" />
      <path
         d="m 27.739371,50.29686 -0.392741,0.583944 q -0.475423,-0.676962 -1.126546,-0.676962 -0.37207,0 -0.63562,0.24288 -0.26355,0.242879 -0.26355,0.537434 0,0.227377 0.160197,0.434082 0.15503,0.206706 0.707967,0.563274 0.806153,0.521931 1.064535,0.909505 0.253214,0.392741 0.253214,0.904337 0,0.707967 -0.496093,1.173055 -0.490926,0.465088 -1.281576,0.465088 -1.043864,0 -1.756998,-0.925008 l 0.439249,-0.511597 q 0.625285,0.759644 1.35909,0.759644 0.418579,0 0.728638,-0.294556 0.310059,-0.294555 0.310059,-0.682129 0,-0.315226 -0.232544,-0.604614 -0.149862,-0.186035 -0.806153,-0.630452 -0.707967,-0.485759 -0.930175,-0.806153 -0.222209,-0.315226 -0.222209,-0.713134 0,-0.625285 0.470255,-1.064535 0.470256,-0.43925 1.188558,-0.43925 0.423747,0 0.764812,0.170533 0.346232,0.170532 0.697631,0.604614 z"
         style="font-style:italic;font-variant:normal;font-weight:normal;font-stretch:normal;font-size:10.58333302px;font-family:'Century Gothic';-inkscape-font-specification:'Century Gothic, Italic';font-variant-ligatures:normal;font-variant-caps:normal;font-variant-numeric:normal;font-feature-settings:normal;text-align:start;writing-mode:lr-tb;text-anchor:start;fill:#fd3255;fill-opacity:1;stroke-width:0.26458332px"
         id="path1957"
         inkscape:connector-curvature="0" />
      <path
         d="m 29.32067,49.666407 h 0.733805 l -0.10852,0.842326 q 0.976684,-0.98702 2.232422,-0.98702 1.152384,0 1.886189,0.738973 0.738973,0.738973 0.738973,1.901693 0,1.343587 -0.956014,2.309936 -0.956014,0.961182 -2.253092,0.961182 -0.702799,0 -1.235067,-0.294556 -0.532267,-0.299723 -0.904337,-0.925008 l -0.408244,3.131592 h -0.749308 z m 2.780192,0.516765 q -0.692464,0 -1.27124,0.330729 -0.573609,0.325561 -0.909505,0.940511 -0.335897,0.614949 -0.335897,1.338419 0,0.873332 0.552938,1.421102 0.558105,0.547771 1.436604,0.547771 1.038697,0 1.77767,-0.749309 0.738973,-0.749308 0.738973,-1.839681 0,-0.894002 -0.552938,-1.441772 -0.54777,-0.54777 -1.436605,-0.54777 z"
         style="font-style:italic;font-variant:normal;font-weight:normal;font-stretch:normal;font-size:10.58333302px;font-family:'Century Gothic';-inkscape-font-specification:'Century Gothic, Italic';font-variant-ligatures:normal;font-variant-caps:normal;font-variant-numeric:normal;font-feature-settings:normal;text-align:start;writing-mode:lr-tb;text-anchor:start;fill:#fd3255;fill-opacity:1;stroke-width:0.26458332px"
         id="path1959"
         inkscape:connector-curvature="0" />
      <path
         d="m 38.658601,49.666407 h 0.744141 l 1.457275,4.149618 2.408122,-4.149618 h 0.800984 l -4.454508,7.679118 h -0.81132 l 1.591634,-2.744018 z"
         style="font-style:italic;font-variant:normal;font-weight:normal;font-stretch:normal;font-size:10.58333302px;font-family:'Century Gothic';-inkscape-font-specification:'Century Gothic, Italic';font-variant-ligatures:normal;font-variant-caps:normal;font-variant-numeric:normal;font-feature-settings:normal;text-align:start;writing-mode:lr-tb;text-anchor:start;fill:#fd3255;fill-opacity:1;stroke-width:0.26458332px"
         id="path1961"
         inkscape:connector-curvature="0" />
      <path
         d="m 50.125602,52.622299 h -5.012614 q -0.0155,1.002523 0.521932,1.576131 0.537435,0.573609 1.431437,0.573609 0.594279,0 1.100708,-0.242879 0.506429,-0.24288 0.837158,-0.682129 l 0.537435,0.439249 q -0.408244,0.521932 -1.069702,0.837159 -0.656291,0.310058 -1.421102,0.310058 -1.322916,0 -1.989542,-0.816487 -0.661459,-0.821656 -0.661459,-1.844849 0,-0.837158 0.444418,-1.612305 0.449585,-0.775146 1.198893,-1.204061 0.749308,-0.434082 1.62264,-0.434082 1.080037,0 1.788004,0.733806 0.707967,0.728637 0.707967,1.860351 0,0.206706 -0.03617,0.506429 z m -0.661458,-0.625285 q -0.03101,-0.795817 -0.542603,-1.286743 -0.511597,-0.496093 -1.286743,-0.496093 -0.842326,0 -1.488281,0.475423 -0.640788,0.475423 -0.909505,1.307413 z"
         style="font-style:italic;font-variant:normal;font-weight:normal;font-stretch:normal;font-size:10.58333302px;font-family:'Century Gothic';-inkscape-font-specification:'Century Gothic, Italic';font-variant-ligatures:normal;font-variant-caps:normal;font-variant-numeric:normal;font-feature-settings:normal;text-align:start;writing-mode:lr-tb;text-anchor:start;fill:#fd3255;fill-opacity:1;stroke-width:0.26458332px"
         id="path1963"
         inkscape:connector-curvature="0" />
      <path
         d="m 52.859285,47.563177 h 0.707967 l -0.279052,2.10323 h 1.116211 l -0.08268,0.630453 H 53.20552 l -0.682129,4.991943 h -0.72347 L 52.47688,50.29686 h -0.96635 l 0.08785,-0.630453 h 0.961182 z"
         style="font-style:italic;font-variant:normal;font-weight:normal;font-stretch:normal;font-size:10.58333302px;font-family:'Century Gothic';-inkscape-font-specification:'Century Gothic, Italic';font-variant-ligatures:normal;font-variant-caps:normal;font-variant-numeric:normal;font-feature-settings:normal;text-align:start;writing-mode:lr-tb;text-anchor:start;fill:#fd3255;fill-opacity:1;stroke-width:0.26458332px"
         id="path1965"
         inkscape:connector-curvature="0" />
      <path
         d="M 63.308257,55.288803 H 62.57962 l 0.10852,-0.847493 q -0.976684,0.992187 -2.237589,0.992187 -1.147217,0 -1.88619,-0.738973 -0.738973,-0.738973 -0.738973,-1.901693 0,-1.343587 0.956014,-2.304768 0.961182,-0.96635 2.25826,-0.96635 0.702799,0 1.229899,0.294556 0.532267,0.294556 0.909505,0.919841 l 0.129191,-1.069703 h 0.749308 z m -2.780192,-0.516764 q 0.697632,0 1.27124,-0.325562 0.573609,-0.330729 0.909506,-0.945678 0.335896,-0.61495 0.335896,-1.33842 0,-0.873332 -0.552937,-1.421102 -0.552938,-0.54777 -1.436605,-0.54777 -1.038696,0 -1.777669,0.749308 -0.738973,0.749309 -0.738973,1.839681 0,0.894002 0.552937,1.441773 0.552938,0.54777 1.436605,0.54777 z"
         style="font-style:italic;font-variant:normal;font-weight:normal;font-stretch:normal;font-size:10.58333302px;font-family:'Century Gothic';-inkscape-font-specification:'Century Gothic, Italic';font-variant-ligatures:normal;font-variant-caps:normal;font-variant-numeric:normal;font-feature-settings:normal;text-align:start;writing-mode:lr-tb;text-anchor:start;fill:#fd3255;fill-opacity:1;stroke-width:0.26458332px"
         id="path1967"
         inkscape:connector-curvature="0" />
      <path
         d="m 65.74222,49.666407 h 0.692464 l -0.10852,0.862997 q 0.852661,-1.007691 1.984375,-1.007691 0.868164,0 1.400431,0.537435 0.532267,0.532268 0.532267,1.436605 0,0.361735 -0.113688,1.214396 l -0.3514,2.578654 h -0.713135 l 0.346232,-2.578654 q 0.113689,-0.826823 0.113689,-1.219564 0,-0.589111 -0.356568,-0.950846 -0.356567,-0.361735 -0.935343,-0.361735 -0.568441,0 -1.059367,0.294556 -0.485758,0.289388 -0.754476,0.795817 -0.268717,0.501261 -0.413411,1.591634 l -0.335897,2.428792 h -0.707967 z"
         style="font-style:italic;font-variant:normal;font-weight:normal;font-stretch:normal;font-size:10.58333302px;font-family:'Century Gothic';-inkscape-font-specification:'Century Gothic, Italic';font-variant-ligatures:normal;font-variant-caps:normal;font-variant-numeric:normal;font-feature-settings:normal;text-align:start;writing-mode:lr-tb;text-anchor:start;fill:#fd3255;fill-opacity:1;stroke-width:0.26458332px"
         id="path1969"
         inkscape:connector-curvature="0" />
      <path
         d="m 74.713248,49.521713 q 0.718303,0 1.317749,0.346233 0.599447,0.341064 0.935344,0.956013 0.335897,0.609782 0.335897,1.384929 0,0.883667 -0.428915,1.64331 -0.428914,0.754476 -1.152384,1.167888 -0.72347,0.413411 -1.638143,0.413411 -1.131714,0 -1.865519,-0.738973 -0.728638,-0.74414 -0.728638,-1.891357 0,-0.89917 0.428915,-1.658814 0.428914,-0.759643 1.173055,-1.188558 0.749308,-0.434082 1.622639,-0.434082 z m -0.0155,0.687297 q -0.671794,0 -1.266073,0.335897 -0.589111,0.335897 -0.909505,0.925008 -0.315226,0.583944 -0.315226,1.291911 0,0.888834 0.54777,1.44694 0.54777,0.552938 1.415934,0.552938 0.676961,0 1.224731,-0.320394 0.552938,-0.325562 0.8785,-0.935344 0.325561,-0.609782 0.325561,-1.307413 0,-0.583944 -0.242879,-1.033529 -0.242879,-0.454753 -0.687297,-0.7028 -0.444417,-0.253214 -0.971516,-0.253214 z"
         style="font-style:italic;font-variant:normal;font-weight:normal;font-stretch:normal;font-size:10.58333302px;font-family:'Century Gothic';-inkscape-font-specification:'Century Gothic, Italic';font-variant-ligatures:normal;font-variant-caps:normal;font-variant-numeric:normal;font-feature-settings:normal;text-align:start;writing-mode:lr-tb;text-anchor:start;fill:#fd3255;fill-opacity:1;stroke-width:0.26458332px"
         id="path1971"
         inkscape:connector-curvature="0" />
      <path
         d="m 79.999746,47.563177 h 0.707967 l -0.279052,2.10323 h 1.116211 l -0.08268,0.630453 h -1.116211 l -0.682129,4.991943 h -0.72347 l 0.676962,-4.991943 h -0.96635 l 0.08785,-0.630453 h 0.961182 z"
         style="font-style:italic;font-variant:normal;font-weight:normal;font-stretch:normal;font-size:10.58333302px;font-family:'Century Gothic';-inkscape-font-specification:'Century Gothic, Italic';font-variant-ligatures:normal;font-variant-caps:normal;font-variant-numeric:normal;font-feature-settings:normal;text-align:start;writing-mode:lr-tb;text-anchor:start;fill:#fd3255;fill-opacity:1;stroke-width:0.26458332px"
         id="path1973"
         inkscape:connector-curvature="0" />
      <path
         d="m 83.002143,47.495997 h 0.7028 l -0.413412,3.023072 q 0.868164,-0.997356 1.984375,-0.997356 0.852661,0 1.390096,0.532268 0.542603,0.532267 0.542603,1.384928 0,0.470256 -0.113688,1.266073 l -0.3514,2.583821 h -0.713135 l 0.3514,-2.583821 q 0.10852,-0.780315 0.10852,-1.240235 0,-0.578776 -0.361735,-0.935343 -0.361735,-0.356568 -0.950846,-0.356568 -0.54777,0 -1.038696,0.294556 -0.485759,0.294556 -0.754476,0.795817 -0.26355,0.501262 -0.413412,1.591634 l -0.335896,2.43396 h -0.7028 z"
         style="font-style:italic;font-variant:normal;font-weight:normal;font-stretch:normal;font-size:10.58333302px;font-family:'Century Gothic';-inkscape-font-specification:'Century Gothic, Italic';font-variant-ligatures:normal;font-variant-caps:normal;font-variant-numeric:normal;font-feature-settings:normal;text-align:start;writing-mode:lr-tb;text-anchor:start;fill:#fd3255;fill-opacity:1;stroke-width:0.26458332px"
         id="path1975"
         inkscape:connector-curvature="0" />
      <path
         d="m 94.195258,52.622299 h -5.012614 q -0.0155,1.002523 0.521932,1.576131 0.537435,0.573609 1.431438,0.573609 0.594279,0 1.100708,-0.242879 0.506429,-0.24288 0.837158,-0.682129 l 0.537435,0.439249 q -0.408244,0.521932 -1.069703,0.837159 -0.65629,0.310058 -1.421101,0.310058 -1.322917,0 -1.989543,-0.816487 -0.661458,-0.821656 -0.661458,-1.844849 0,-0.837158 0.444417,-1.612305 0.449585,-0.775146 1.198893,-1.204061 0.749308,-0.434082 1.62264,-0.434082 1.080038,0 1.788005,0.733806 0.707967,0.728637 0.707967,1.860351 0,0.206706 -0.03617,0.506429 z M 93.5338,51.997014 q -0.03101,-0.795817 -0.542603,-1.286743 -0.511596,-0.496093 -1.286743,-0.496093 -0.842326,0 -1.488281,0.475423 -0.640788,0.475423 -0.909505,1.307413 z"
         style="font-style:italic;font-variant:normal;font-weight:normal;font-stretch:normal;font-size:10.58333302px;font-family:'Century Gothic';-inkscape-font-specification:'Century Gothic, Italic';font-variant-ligatures:normal;font-variant-caps:normal;font-variant-numeric:normal;font-feature-settings:normal;text-align:start;writing-mode:lr-tb;text-anchor:start;fill:#fd3255;fill-opacity:1;stroke-width:0.26458332px"
         id="path1977"
         inkscape:connector-curvature="0" />
      <path
         d="m 95.740384,49.666407 h 0.718302 l -0.09302,0.707968 q 0.289388,-0.403077 0.697631,-0.625285 0.408244,-0.227377 0.837159,-0.227377 0.304891,0 0.63562,0.144694 l -0.341065,0.661459 q -0.268717,-0.108521 -0.449585,-0.108521 -0.377238,0 -0.749308,0.26355 -0.366903,0.26355 -0.599447,0.769979 -0.227376,0.501261 -0.387573,1.653646 l -0.330729,2.382283 H 94.97557 Z"
         style="font-style:italic;font-variant:normal;font-weight:normal;font-stretch:normal;font-size:10.58333302px;font-family:'Century Gothic';-inkscape-font-specification:'Century Gothic, Italic';font-variant-ligatures:normal;font-variant-caps:normal;font-variant-numeric:normal;font-feature-settings:normal;text-align:start;writing-mode:lr-tb;text-anchor:start;fill:#fd3255;fill-opacity:1;stroke-width:0.26458332px"
         id="path1979"
         inkscape:connector-curvature="0" />
      <path
         d="m 102.41698,47.6872 h 1.63298 q 1.55029,0 2.37711,0.408244 0.82683,0.403076 1.33325,1.255737 0.50643,0.847494 0.50643,1.937866 0,1.16272 -0.57361,2.14974 -0.56844,0.98702 -1.40559,1.421102 -0.83199,0.428914 -2.48564,0.428914 h -2.39262 z m 0.65629,0.733805 -0.81132,6.128825 h 0.66663 q 1.53996,0 2.04122,-0.08268 0.76481,-0.124024 1.28674,-0.485759 0.52193,-0.366902 0.894,-1.090372 0.37207,-0.728638 0.37207,-1.586467 0,-0.904337 -0.42374,-1.581298 -0.41858,-0.676962 -1.15239,-1.012859 -0.62528,-0.289388 -2.11356,-0.289388 z"
         style="font-style:italic;font-variant:normal;font-weight:normal;font-stretch:normal;font-size:10.58333302px;font-family:'Century Gothic';-inkscape-font-specification:'Century Gothic, Italic';font-variant-ligatures:normal;font-variant-caps:normal;font-variant-numeric:normal;font-feature-settings:normal;text-align:start;writing-mode:lr-tb;text-anchor:start;fill:#fd3255;fill-opacity:1;stroke-width:0.26458332px"
         id="path1981"
         inkscape:connector-curvature="0" />
      <path
         d="m 113.83747,49.092799 -0.7183,0.180868 q -0.14469,-0.480591 -0.47542,-0.759644 -0.33073,-0.279053 -0.71314,-0.279053 -0.42374,0 -0.69246,0.289388 -0.26355,0.284221 -0.26355,0.764811 0,0.423747 0.28422,0.883667 0.1757,0.289388 0.84749,0.89917 0.69763,0.630453 0.97152,1.178223 0.27905,0.542602 0.27905,1.064534 0,0.552938 -0.30489,1.064535 -0.29972,0.511597 -0.81132,0.806152 -0.5116,0.294556 -1.0852,0.294556 -0.72864,0 -1.26608,-0.465088 -0.53226,-0.465088 -0.76481,-1.364258 l 0.7028,-0.237711 q 0.16537,0.682129 0.53744,1.012858 0.37207,0.330729 0.85783,0.330729 0.55293,0 0.95084,-0.408244 0.39791,-0.408244 0.39791,-1.00769 0,-0.43925 -0.22738,-0.857829 -0.2222,-0.418579 -0.8785,-1.00769 -0.70279,-0.640788 -0.91467,-0.981853 -0.34623,-0.56844 -0.34623,-1.198893 0,-0.780314 0.50643,-1.286743 0.5116,-0.511597 1.26607,-0.511597 0.63562,0 1.13172,0.403077 0.49609,0.403076 0.72863,1.193725 z"
         style="font-style:italic;font-variant:normal;font-weight:normal;font-stretch:normal;font-size:10.58333302px;font-family:'Century Gothic';-inkscape-font-specification:'Century Gothic, Italic';font-variant-ligatures:normal;font-variant-caps:normal;font-variant-numeric:normal;font-feature-settings:normal;text-align:start;writing-mode:lr-tb;text-anchor:start;fill:#fd3255;fill-opacity:1;stroke-width:0.26458332px"
         id="path1983"
         inkscape:connector-curvature="0" />
      <path
         d="m 115.5893,47.6872 h 0.76482 l -0.91468,6.888468 h 3.28662 l -0.0879,0.713135 h -4.05143 z"
         style="font-style:italic;font-variant:normal;font-weight:normal;font-stretch:normal;font-size:10.58333302px;font-family:'Century Gothic';-inkscape-font-specification:'Century Gothic, Italic';font-variant-ligatures:normal;font-variant-caps:normal;font-variant-numeric:normal;font-feature-settings:normal;text-align:start;writing-mode:lr-tb;text-anchor:start;fill:#fd3255;fill-opacity:1;stroke-width:0.26458332px"
         id="path1985"
         inkscape:connector-curvature="0" />
    </g>
  </g>
</svg>
